<mxfile host="65bd71144e">
    <diagram id="4rTg1F9sDJ83Y3JCCfUz" name="Page-1">
        <mxGraphModel dx="1847" dy="1396" grid="0" gridSize="10" guides="1" tooltips="1" connect="1" arrows="1" fold="1" page="0" pageScale="1" pageWidth="827" pageHeight="1169" math="0" shadow="0">
            <root>
                <mxCell id="0"/>
                <mxCell id="1" parent="0"/>
                <mxCell id="9" value="MiniJavaCompiler" style="swimlane;fontStyle=1;align=center;verticalAlign=top;childLayout=stackLayout;horizontal=1;startSize=26;horizontalStack=0;resizeParent=1;resizeParentMax=0;resizeLast=0;collapsible=1;marginBottom=0;fontSize=14;" vertex="1" parent="1">
                    <mxGeometry x="480" y="362" width="258" height="60" as="geometry"/>
                </mxCell>
                <mxCell id="11" value="" style="line;strokeWidth=1;fillColor=none;align=left;verticalAlign=middle;spacingTop=-1;spacingLeft=3;spacingRight=3;rotatable=0;labelPosition=right;points=[];portConstraint=eastwest;strokeColor=inherit;fontSize=14;" vertex="1" parent="9">
                    <mxGeometry y="26" width="258" height="8" as="geometry"/>
                </mxCell>
                <mxCell id="12" value="+ Compile(string, string, string): void" style="text;strokeColor=none;fillColor=none;align=left;verticalAlign=top;spacingLeft=4;spacingRight=4;overflow=hidden;rotatable=0;points=[[0,0.5],[1,0.5]];portConstraint=eastwest;fontSize=14;" vertex="1" parent="9">
                    <mxGeometry y="34" width="258" height="26" as="geometry"/>
                </mxCell>
                <mxCell id="17" value="MiniJavaLexer" style="swimlane;fontStyle=1;align=center;verticalAlign=top;childLayout=stackLayout;horizontal=1;startSize=26;horizontalStack=0;resizeParent=1;resizeParentMax=0;resizeLast=0;collapsible=1;marginBottom=0;fontSize=14;" vertex="1" parent="1">
                    <mxGeometry x="161" y="302" width="227" height="60" as="geometry"/>
                </mxCell>
                <mxCell id="19" value="" style="line;strokeWidth=1;fillColor=none;align=left;verticalAlign=middle;spacingTop=-1;spacingLeft=3;spacingRight=3;rotatable=0;labelPosition=right;points=[];portConstraint=eastwest;strokeColor=inherit;fontSize=14;" vertex="1" parent="17">
                    <mxGeometry y="26" width="227" height="8" as="geometry"/>
                </mxCell>
                <mxCell id="20" value="+ MiniJavaLexer(FileStream)" style="text;strokeColor=none;fillColor=none;align=left;verticalAlign=top;spacingLeft=4;spacingRight=4;overflow=hidden;rotatable=0;points=[[0,0.5],[1,0.5]];portConstraint=eastwest;fontSize=14;" vertex="1" parent="17">
                    <mxGeometry y="34" width="227" height="26" as="geometry"/>
                </mxCell>
                <mxCell id="21" value="MiniJavaParser" style="swimlane;fontStyle=1;align=center;verticalAlign=top;childLayout=stackLayout;horizontal=1;startSize=26;horizontalStack=0;resizeParent=1;resizeParentMax=0;resizeLast=0;collapsible=1;marginBottom=0;fontSize=14;" vertex="1" parent="1">
                    <mxGeometry x="165" y="379" width="229" height="60" as="geometry"/>
                </mxCell>
                <mxCell id="22" value="" style="line;strokeWidth=1;fillColor=none;align=left;verticalAlign=middle;spacingTop=-1;spacingLeft=3;spacingRight=3;rotatable=0;labelPosition=right;points=[];portConstraint=eastwest;strokeColor=inherit;fontSize=14;" vertex="1" parent="21">
                    <mxGeometry y="26" width="229" height="8" as="geometry"/>
                </mxCell>
                <mxCell id="23" value="+ MiniJavaParser(TokenStream)" style="text;strokeColor=none;fillColor=none;align=left;verticalAlign=top;spacingLeft=4;spacingRight=4;overflow=hidden;rotatable=0;points=[[0,0.5],[1,0.5]];portConstraint=eastwest;fontSize=14;" vertex="1" parent="21">
                    <mxGeometry y="34" width="229" height="26" as="geometry"/>
                </mxCell>
                <mxCell id="24" value="MiniJavaBaseVisitor&lt;T&gt;" style="swimlane;fontStyle=1;align=center;verticalAlign=top;childLayout=stackLayout;horizontal=1;startSize=26;horizontalStack=0;resizeParent=1;resizeParentMax=0;resizeLast=0;collapsible=1;marginBottom=0;fontSize=14;" vertex="1" parent="1">
                    <mxGeometry x="519.5" y="-44" width="415.5" height="112" as="geometry"/>
                </mxCell>
                <mxCell id="26" value="" style="line;strokeWidth=1;fillColor=none;align=left;verticalAlign=middle;spacingTop=-1;spacingLeft=3;spacingRight=3;rotatable=0;labelPosition=right;points=[];portConstraint=eastwest;strokeColor=inherit;fontSize=14;" vertex="1" parent="24">
                    <mxGeometry y="26" width="415.5" height="8" as="geometry"/>
                </mxCell>
                <mxCell id="27" value="+ VisitGoal(GoalContext): T" style="text;strokeColor=none;fillColor=none;align=left;verticalAlign=top;spacingLeft=4;spacingRight=4;overflow=hidden;rotatable=0;points=[[0,0.5],[1,0.5]];portConstraint=eastwest;fontSize=14;" vertex="1" parent="24">
                    <mxGeometry y="34" width="415.5" height="26" as="geometry"/>
                </mxCell>
                <mxCell id="28" value="+ VisitMainClassDeclaration(MainClassDeclarationContext): T" style="text;strokeColor=none;fillColor=none;align=left;verticalAlign=top;spacingLeft=4;spacingRight=4;overflow=hidden;rotatable=0;points=[[0,0.5],[1,0.5]];portConstraint=eastwest;fontSize=14;" vertex="1" parent="24">
                    <mxGeometry y="60" width="415.5" height="26" as="geometry"/>
                </mxCell>
                <mxCell id="29" value="+ ..." style="text;strokeColor=none;fillColor=none;align=left;verticalAlign=top;spacingLeft=4;spacingRight=4;overflow=hidden;rotatable=0;points=[[0,0.5],[1,0.5]];portConstraint=eastwest;fontSize=14;" vertex="1" parent="24">
                    <mxGeometry y="86" width="415.5" height="26" as="geometry"/>
                </mxCell>
                <mxCell id="30" value="ClassDeclarationsVisitor" style="swimlane;fontStyle=1;align=center;verticalAlign=top;childLayout=stackLayout;horizontal=1;startSize=26;horizontalStack=0;resizeParent=1;resizeParentMax=0;resizeLast=0;collapsible=1;marginBottom=0;fontSize=14;" vertex="1" parent="1">
                    <mxGeometry x="70" y="122" width="414" height="112" as="geometry"/>
                </mxCell>
                <mxCell id="31" value="+ Classes: Dictionary&lt;string, TypeGen&gt;" style="text;strokeColor=none;fillColor=none;align=left;verticalAlign=top;spacingLeft=4;spacingRight=4;overflow=hidden;rotatable=0;points=[[0,0.5],[1,0.5]];portConstraint=eastwest;fontSize=14;" vertex="1" parent="30">
                    <mxGeometry y="26" width="414" height="26" as="geometry"/>
                </mxCell>
                <mxCell id="32" value="" style="line;strokeWidth=1;fillColor=none;align=left;verticalAlign=middle;spacingTop=-1;spacingLeft=3;spacingRight=3;rotatable=0;labelPosition=right;points=[];portConstraint=eastwest;strokeColor=inherit;fontSize=14;" vertex="1" parent="30">
                    <mxGeometry y="52" width="414" height="8" as="geometry"/>
                </mxCell>
                <mxCell id="33" value="+ VistiMainClassDeclaration(MainClassDeclarationContext): bool" style="text;strokeColor=none;fillColor=none;align=left;verticalAlign=top;spacingLeft=4;spacingRight=4;overflow=hidden;rotatable=0;points=[[0,0.5],[1,0.5]];portConstraint=eastwest;fontSize=14;" vertex="1" parent="30">
                    <mxGeometry y="60" width="414" height="26" as="geometry"/>
                </mxCell>
                <mxCell id="36" value="+ VistiClassDeclaration(ClassDeclarationContext): bool" style="text;strokeColor=none;fillColor=none;align=left;verticalAlign=top;spacingLeft=4;spacingRight=4;overflow=hidden;rotatable=0;points=[[0,0.5],[1,0.5]];portConstraint=eastwest;fontSize=14;" vertex="1" parent="30">
                    <mxGeometry y="86" width="414" height="26" as="geometry"/>
                </mxCell>
                <mxCell id="35" value="" style="endArrow=block;endFill=0;endSize=12;html=1;entryX=-0.001;entryY=-0.24;entryDx=0;entryDy=0;entryPerimeter=0;exitX=0.5;exitY=0;exitDx=0;exitDy=0;fontSize=14;" edge="1" parent="1" source="30" target="29">
                    <mxGeometry width="160" relative="1" as="geometry">
                        <mxPoint x="333" y="338" as="sourcePoint"/>
                        <mxPoint x="493" y="338" as="targetPoint"/>
                    </mxGeometry>
                </mxCell>
                <mxCell id="37" value="ClassesMethodsDeclarationsVisitor" style="swimlane;fontStyle=1;align=center;verticalAlign=top;childLayout=stackLayout;horizontal=1;startSize=26;horizontalStack=0;resizeParent=1;resizeParentMax=0;resizeLast=0;collapsible=1;marginBottom=0;fontSize=14;" vertex="1" parent="1">
                    <mxGeometry x="496" y="129" width="464" height="164" as="geometry"/>
                </mxCell>
                <mxCell id="38" value="+ ClassesMethods: Dictionary&lt;string, Dictionary&lt;string, MethodGen&gt;&gt;" style="text;strokeColor=none;fillColor=none;align=left;verticalAlign=top;spacingLeft=4;spacingRight=4;overflow=hidden;rotatable=0;points=[[0,0.5],[1,0.5]];portConstraint=eastwest;fontSize=14;" vertex="1" parent="37">
                    <mxGeometry y="26" width="464" height="26" as="geometry"/>
                </mxCell>
                <mxCell id="39" value="" style="line;strokeWidth=1;fillColor=none;align=left;verticalAlign=middle;spacingTop=-1;spacingLeft=3;spacingRight=3;rotatable=0;labelPosition=right;points=[];portConstraint=eastwest;strokeColor=inherit;fontSize=14;" vertex="1" parent="37">
                    <mxGeometry y="52" width="464" height="8" as="geometry"/>
                </mxCell>
                <mxCell id="41" value="+ VistiMainClassDeclaration(MainClassDeclarationContext): bool" style="text;strokeColor=none;fillColor=none;align=left;verticalAlign=top;spacingLeft=4;spacingRight=4;overflow=hidden;rotatable=0;points=[[0,0.5],[1,0.5]];portConstraint=eastwest;fontSize=14;" vertex="1" parent="37">
                    <mxGeometry y="60" width="464" height="26" as="geometry"/>
                </mxCell>
                <mxCell id="42" value="+ VistiClassDeclaration(ClassDeclarationContext): bool" style="text;strokeColor=none;fillColor=none;align=left;verticalAlign=top;spacingLeft=4;spacingRight=4;overflow=hidden;rotatable=0;points=[[0,0.5],[1,0.5]];portConstraint=eastwest;fontSize=14;" vertex="1" parent="37">
                    <mxGeometry y="86" width="464" height="26" as="geometry"/>
                </mxCell>
                <mxCell id="40" value="+ VisitMainMethodDeclaration(VisitMainMethodDeclarationContext): bool" style="text;strokeColor=none;fillColor=none;align=left;verticalAlign=top;spacingLeft=4;spacingRight=4;overflow=hidden;rotatable=0;points=[[0,0.5],[1,0.5]];portConstraint=eastwest;fontSize=14;" vertex="1" parent="37">
                    <mxGeometry y="112" width="464" height="26" as="geometry"/>
                </mxCell>
                <mxCell id="43" value="+ VisitMethodDeclaration(MethodDeclarationContext): bool" style="text;strokeColor=none;fillColor=none;align=left;verticalAlign=top;spacingLeft=4;spacingRight=4;overflow=hidden;rotatable=0;points=[[0,0.5],[1,0.5]];portConstraint=eastwest;fontSize=14;" vertex="1" parent="37">
                    <mxGeometry y="138" width="464" height="26" as="geometry"/>
                </mxCell>
                <mxCell id="44" value="" style="endArrow=block;endFill=0;endSize=12;html=1;entryX=0.514;entryY=1.204;entryDx=0;entryDy=0;entryPerimeter=0;exitX=0.5;exitY=0;exitDx=0;exitDy=0;fontSize=14;" edge="1" parent="1" source="37" target="29">
                    <mxGeometry width="160" relative="1" as="geometry">
                        <mxPoint x="528" y="305" as="sourcePoint"/>
                        <mxPoint x="577.8960000000002" y="158" as="targetPoint"/>
                    </mxGeometry>
                </mxCell>
                <mxCell id="45" value="MethodsImplementationVisitor" style="swimlane;fontStyle=1;align=center;verticalAlign=top;childLayout=stackLayout;horizontal=1;startSize=26;horizontalStack=0;resizeParent=1;resizeParentMax=0;resizeLast=0;collapsible=1;marginBottom=0;fontSize=14;" vertex="1" parent="1">
                    <mxGeometry x="881" y="299" width="402" height="112" as="geometry"/>
                </mxCell>
                <mxCell id="47" value="" style="line;strokeWidth=1;fillColor=none;align=left;verticalAlign=middle;spacingTop=-1;spacingLeft=3;spacingRight=3;rotatable=0;labelPosition=right;points=[];portConstraint=eastwest;strokeColor=inherit;fontSize=14;" vertex="1" parent="45">
                    <mxGeometry y="26" width="402" height="8" as="geometry"/>
                </mxCell>
                <mxCell id="49" value="+ VisitGoal(GoalContext): T" style="text;strokeColor=none;fillColor=none;align=left;verticalAlign=top;spacingLeft=4;spacingRight=4;overflow=hidden;rotatable=0;points=[[0,0.5],[1,0.5]];portConstraint=eastwest;fontSize=14;" vertex="1" parent="45">
                    <mxGeometry y="34" width="402" height="26" as="geometry"/>
                </mxCell>
                <mxCell id="50" value="+ VisitMainClassDeclaration(MainClassDeclarationContext): T" style="text;strokeColor=none;fillColor=none;align=left;verticalAlign=top;spacingLeft=4;spacingRight=4;overflow=hidden;rotatable=0;points=[[0,0.5],[1,0.5]];portConstraint=eastwest;fontSize=14;" vertex="1" parent="45">
                    <mxGeometry y="60" width="402" height="26" as="geometry"/>
                </mxCell>
                <mxCell id="51" value="+ ..." style="text;strokeColor=none;fillColor=none;align=left;verticalAlign=top;spacingLeft=4;spacingRight=4;overflow=hidden;rotatable=0;points=[[0,0.5],[1,0.5]];portConstraint=eastwest;fontSize=14;" vertex="1" parent="45">
                    <mxGeometry y="86" width="402" height="26" as="geometry"/>
                </mxCell>
                <mxCell id="52" value="" style="endArrow=block;endFill=0;endSize=12;html=1;entryX=1;entryY=0.5;entryDx=0;entryDy=0;exitX=0.5;exitY=0;exitDx=0;exitDy=0;fontSize=14;" edge="1" parent="1" source="45" target="28">
                    <mxGeometry width="160" relative="1" as="geometry">
                        <mxPoint x="960.5" y="302" as="sourcePoint"/>
                        <mxPoint x="693.0799999999999" y="160.00199999999995" as="targetPoint"/>
                    </mxGeometry>
                </mxCell>
                <mxCell id="53" value="Use" style="endArrow=open;endSize=12;dashed=1;html=1;entryX=0.719;entryY=1.113;entryDx=0;entryDy=0;entryPerimeter=0;exitX=0.5;exitY=0;exitDx=0;exitDy=0;fontSize=14;" edge="1" parent="1" source="9" target="36">
                    <mxGeometry width="160" relative="1" as="geometry">
                        <mxPoint x="435" y="283" as="sourcePoint"/>
                        <mxPoint x="595" y="283" as="targetPoint"/>
                    </mxGeometry>
                </mxCell>
                <mxCell id="54" value="Use" style="endArrow=open;endSize=12;dashed=1;html=1;entryX=1;entryY=0.25;entryDx=0;entryDy=0;exitX=0.37;exitY=-0.036;exitDx=0;exitDy=0;exitPerimeter=0;fontSize=14;" edge="1" parent="1" source="9" target="17">
                    <mxGeometry width="160" relative="1" as="geometry">
                        <mxPoint x="626.0000000000005" y="495" as="sourcePoint"/>
                        <mxPoint x="255.9659999999999" y="141.06600000000003" as="targetPoint"/>
                    </mxGeometry>
                </mxCell>
                <mxCell id="55" value="Use" style="endArrow=open;endSize=12;dashed=1;html=1;entryX=1;entryY=0.25;entryDx=0;entryDy=0;exitX=0;exitY=0.5;exitDx=0;exitDy=0;fontSize=14;" edge="1" parent="1" source="12" target="21">
                    <mxGeometry width="160" relative="1" as="geometry">
                        <mxPoint x="548" y="484" as="sourcePoint"/>
                        <mxPoint x="38" y="212.99999999999977" as="targetPoint"/>
                    </mxGeometry>
                </mxCell>
                <mxCell id="57" value="Use" style="endArrow=open;endSize=12;dashed=1;html=1;entryX=0.489;entryY=1.095;entryDx=0;entryDy=0;entryPerimeter=0;exitX=0.593;exitY=0;exitDx=0;exitDy=0;exitPerimeter=0;fontSize=14;" edge="1" parent="1" source="9" target="43">
                    <mxGeometry width="160" relative="1" as="geometry">
                        <mxPoint x="626.0000000000005" y="495" as="sourcePoint"/>
                        <mxPoint x="255.9659999999999" y="141.06600000000003" as="targetPoint"/>
                    </mxGeometry>
                </mxCell>
                <mxCell id="58" value="Use" style="endArrow=open;endSize=12;dashed=1;html=1;entryX=0;entryY=0.5;entryDx=0;entryDy=0;exitX=1;exitY=0.25;exitDx=0;exitDy=0;fontSize=14;" edge="1" parent="1" source="9" target="50">
                    <mxGeometry width="160" relative="1" as="geometry">
                        <mxPoint x="649.9940000000001" y="495" as="sourcePoint"/>
                        <mxPoint x="714.935" y="250.47000000000003" as="targetPoint"/>
                    </mxGeometry>
                </mxCell>
            </root>
        </mxGraphModel>
    </diagram>
</mxfile>